<svg width="1014" height="1297" viewBox="0 0 1014 1297" fill="none" xmlns="http://www.w3.org/2000/svg">
<path d="M5.5 822L11.5 901.5L12.5 926.5L14.5 955L20.5 987.5L23.5 1002L28 1024L37 1054L44.5 1082L48.5 1096L56.5 1119.5L62.5 1137L71 1159L77.5 1174L88.5 1195L97.5 1209L110 1230.5L115.5 1239.5L119 1248L121 1255L122.5 1262L123.5 1270.5L127 1278L131.5 1284L136.5 1287.5L142 1290L150.5 1291.5H160L168.5 1290L182.5 1287.5L199 1284L214.5 1280L222.5 1276.5L230 1272.5L234.5 1268.5L236 1263.5V1256.5V1252.5L234.5 1248L231 1244L222.5 1238L213.5 1233.5L203 1229L192.5 1222L182.5 1216L171.5 1207L161.5 1197.5L154 1188L145.5 1175.5L129.5 1148L119.5 1128.5L113.5 1112L107.5 1096L105 1085.5L104 1077V1066.5V1062L106 1055.5L109 1051L115.5 1042L124 1029.5L127 1024L129.5 1018.5V1011.5V1004.5L126 990L124 978.5L121 960L117 938.5L112 914.5L108 897.5L103.5 884.5L98 870L91 860.5L83.5 851.5L77 843L70 833L66 824.5L63 815.5L60.5 796.5V784.5L62 767.5L63 755L66.5 734L68.5 723L71.5 711L77 697.5L81.5 685L86.5 674L94 660L99 653L106.5 645L113 639.5L126 631L139 627L154 625L174 622L193 620.5L214 618L248.5 613.5L269.5 611.5L305 608.5L323 606.5L345 604.5L363.5 601.5L381 599.5H396.5H411.5L419 601.5L426.5 604.5L437.5 607.5L444 609.5L453 607.5L459 604.5L464.5 598.5L467 591L470 580.5L475.5 574.5L481.5 571.5L494 569.5L508 567.5L534.5 563.5L588.5 552L624 542.5L660.5 531.5L681.5 524L729.5 501L762 485L819.5 454L853.5 435.5L870 425L896 403.5L903 397L912 384L920 374L937 343L943.5 326L962.5 279.5L980 229L986 208.5L997.5 150L1004.5 86.5L1008.5 53V39.5V31.5L1007 25L1004.5 18.5L1000 13.5L994.5 10.5L984 8.5H976L966 10.5L913.5 30L902.5 35.5L896 41.5L892 50L890.5 58.5L894.5 68.5L903.5 81.5L918 99L929 111L933.5 116.5L936 122V127.5L933.5 132L930.5 136L926 139L915.5 136L907.5 127.5L899 111L890.5 97.5L884 84.5L878 73L874 60.5L871 48.5L868.5 38.5L864.5 25.5L860 16.5L854.5 9L844.5 5.5H835.5L827 9L816.5 19.5L806.5 35.5L792.5 51L770 78L746 108.5L721 143L695.5 178.5L676 203.5L667.5 223L661 241.5L663.5 258L671.5 273L683.5 284.5L695.5 297L708.5 314.5L721 335L729.5 359V381V398.5L721 415.5L703.5 437.5L679.5 457L645.5 469L604.5 476L565 481.5L525 490L489.5 502L460.5 514.5L431 528L403 536.5L362.5 544L323 550L276.5 560L230 572L182 584L132.5 592L96.5 596L65.5 600.5L44 610L37 619.5L31.5 631.5L28 656.5L20 688L11.5 728L5.5 778.5V822Z" stroke="black" stroke-width="10"/>
</svg>
